<?xml version="1.0" encoding="UTF-8"?>
<!DOCTYPE svg PUBLIC "-//W3C//DTD SVG 1.1//EN" "http://www.w3.org/Graphics/SVG/1.1/DTD/svg11.dtd">
<!-- Creator: CorelDRAW -->
<svg xmlns="http://www.w3.org/2000/svg" xml:space="preserve" width="100px" height="23px" version="1.1" style="shape-rendering:geometricPrecision; text-rendering:geometricPrecision; image-rendering:optimizeQuality; fill-rule:evenodd; clip-rule:evenodd"
viewBox="0 0 98.9 22.67"
 xmlns:xlink="http://www.w3.org/1999/xlink"
 xmlns:xodm="http://www.corel.com/coreldraw/odm/2003">
 <defs>
  <style type="text/css">
   <![CDATA[
    .str0 {stroke:#D8042A;stroke-width:0.03;stroke-miterlimit:22.9256}
    .fil0 {fill:#D8042A;fill-rule:nonzero}
   ]]>
  </style>
 </defs>
 <g id="Camada_x0020_1">
  <metadata id="CorelCorpID_0Corel-Layer"/>
  <path class="fil0 str0" d="M11.33 0.01c2.06,0 4,0.56 5.67,1.52 1.72,1 3.16,2.44 4.15,4.17 0.14,0.24 0.06,0.56 -0.19,0.7l0 0 -5.62 3.26c-0.24,0.14 -0.56,0.06 -0.7,-0.19l-0.01 -0.01c-0.33,-0.59 -0.81,-1.07 -1.39,-1.41 -0.57,-0.33 -1.23,-0.52 -1.93,-0.52 -1.05,0 -2.01,0.43 -2.7,1.12 -0.69,0.69 -1.12,1.65 -1.12,2.7 0,1.06 0.43,2.02 1.12,2.71 0.69,0.69 1.65,1.12 2.7,1.12 0.69,0 1.34,-0.18 1.89,-0.5 0.58,-0.33 1.06,-0.8 1.4,-1.37 0.14,-0.25 0.46,-0.33 0.7,-0.18l5.6 3.25c0.24,0.14 0.33,0.45 0.19,0.7l-0.01 0c-1,1.7 -2.43,3.11 -4.14,4.09 -1.65,0.94 -3.57,1.48 -5.61,1.48 -3.12,0 -5.95,-1.26 -8,-3.31 -2.05,-2.05 -3.32,-4.88 -3.32,-8.01 0,-1.62 0.35,-3.16 0.96,-4.55 0.2,-0.49 0.45,-0.96 0.73,-1.4 0.47,-0.74 1.01,-1.43 1.63,-2.05 2.05,-2.05 4.88,-3.32 8,-3.32zm3.69 14.47c-0.27,0.37 -0.56,0.71 -0.88,1.03 -1.46,1.46 -3.47,2.37 -5.7,2.37 -2.23,0 -4.24,-0.91 -5.7,-2.37 -0.59,-0.58 -1.09,-1.26 -1.47,-2.01 0.42,1.97 1.41,3.74 2.78,5.11 1.87,1.86 4.44,3.02 7.28,3.02 1.86,0 3.6,-0.49 5.1,-1.35 1.41,-0.81 2.61,-1.93 3.5,-3.28l-4.73 -2.75c-0.06,0.08 -0.12,0.15 -0.18,0.23zm-13.11 -7.3c-0.33,0.82 -0.51,1.7 -0.51,2.63 0,1.95 0.79,3.71 2.06,4.98 1.28,1.27 3.04,2.06 4.98,2.06 1.06,0 2.06,-0.23 2.96,-0.65 -0.03,0 -0.06,0 -0.09,0 -1.34,0 -2.55,-0.54 -3.43,-1.42 -0.67,-0.67 -1.14,-1.53 -1.33,-2.5 -0.23,-0.76 -0.36,-1.57 -0.36,-2.4 0,-2.27 0.92,-4.32 2.41,-5.81 1.48,-1.48 3.54,-2.4 5.8,-2.4 0.18,0 0.36,0.01 0.54,0.02 -1.12,-0.42 -2.34,-0.65 -3.61,-0.65 -4.05,0 -7.79,2.44 -9.42,6.14zm16.72 -3.1c-1.18,-0.87 -2.65,-1.38 -4.23,-1.38 -1.98,0 -3.78,0.8 -5.08,2.1 -1,1.01 -1.71,2.32 -1.98,3.78 0.16,-0.24 0.34,-0.45 0.54,-0.65 0.88,-0.88 2.09,-1.42 3.43,-1.42 0.89,0 1.72,0.24 2.44,0.65 0.59,0.35 1.1,0.82 1.5,1.37l4.75 -2.76c-0.39,-0.61 -0.85,-1.18 -1.37,-1.69z"/>
  <path class="fil0" d="M29.99 12.63l0.01 0.03c0.01,0.83 -0.23,1.47 -0.71,1.9 -0.49,0.43 -1.18,0.65 -2.06,0.65 -0.91,0 -1.64,-0.28 -2.19,-0.83 -0.55,-0.56 -0.82,-1.28 -0.82,-2.18l0 -1.53c0,-0.89 0.26,-1.62 0.79,-2.17 0.53,-0.56 1.23,-0.84 2.1,-0.84 0.93,0 1.65,0.22 2.16,0.65 0.51,0.44 0.76,1.07 0.74,1.89l-0.01 0.03 -1.66 0c0,-0.45 -0.1,-0.77 -0.29,-0.96 -0.19,-0.2 -0.5,-0.3 -0.94,-0.3 -0.38,0 -0.68,0.16 -0.88,0.46 -0.21,0.31 -0.31,0.72 -0.31,1.23l0 1.54c0,0.51 0.11,0.93 0.34,1.23 0.22,0.31 0.55,0.47 0.97,0.47 0.38,0 0.67,-0.1 0.84,-0.29 0.17,-0.2 0.26,-0.52 0.26,-0.98l1.66 0zm7.04 -0.53c0,0.9 -0.28,1.64 -0.86,2.23 -0.57,0.59 -1.32,0.88 -2.24,0.88 -0.93,0 -1.68,-0.29 -2.26,-0.88 -0.58,-0.59 -0.87,-1.33 -0.87,-2.23l0 -1.32c0,-0.9 0.29,-1.65 0.87,-2.23 0.57,-0.59 1.32,-0.89 2.25,-0.89 0.92,0 1.67,0.3 2.25,0.89 0.57,0.58 0.86,1.33 0.86,2.23l0 1.32zm-1.7 -1.33c0,-0.53 -0.12,-0.96 -0.37,-1.29 -0.24,-0.34 -0.59,-0.51 -1.04,-0.51 -0.46,0 -0.81,0.17 -1.06,0.5 -0.24,0.34 -0.36,0.77 -0.36,1.3l0 1.33c0,0.53 0.12,0.96 0.37,1.3 0.25,0.33 0.6,0.5 1.06,0.5 0.45,0 0.79,-0.17 1.04,-0.5 0.24,-0.34 0.36,-0.77 0.36,-1.3l0 -1.33zm8.85 4.33l-1.69 0 -2.69 -4.61 -0.03 0.01 0 4.6 -1.7 0 0 -7.33 1.7 0 2.69 4.61 0.03 -0.01 0 -4.6 1.69 0 0 7.33zm5.46 -3.14l-2.59 0 0 1.83 3.1 0 0 1.31 -4.8 0 0 -7.33 4.81 0 0 1.31 -3.11 0 0 1.57 2.59 0 0 1.31zm7.1 0.67l0.01 0.03c0.01,0.83 -0.22,1.47 -0.71,1.9 -0.48,0.43 -1.17,0.65 -2.06,0.65 -0.91,0 -1.63,-0.28 -2.18,-0.83 -0.55,-0.56 -0.83,-1.28 -0.83,-2.18l0 -1.53c0,-0.89 0.27,-1.62 0.8,-2.17 0.53,-0.56 1.23,-0.84 2.09,-0.84 0.93,0 1.65,0.22 2.16,0.65 0.51,0.44 0.76,1.07 0.75,1.89l-0.02 0.03 -1.66 0c0,-0.45 -0.09,-0.77 -0.28,-0.96 -0.19,-0.2 -0.51,-0.3 -0.95,-0.3 -0.38,0 -0.67,0.16 -0.88,0.46 -0.2,0.31 -0.3,0.72 -0.3,1.23l0 1.54c0,0.51 0.11,0.93 0.33,1.23 0.23,0.31 0.55,0.47 0.97,0.47 0.39,0 0.67,-0.1 0.85,-0.29 0.17,-0.2 0.25,-0.52 0.25,-0.98l1.66 0zm5.91 -3.55l-1.94 0 0 6.02 -1.7 0 0 -6.02 -1.91 0 0 -1.31 5.55 0 0 1.31zm3.98 4.6l-2.18 0 -0.42 1.42 -1.8 0 2.39 -7.33 0.92 0 0 0 0 0 0.91 0 2.4 7.33 -1.79 0 -0.43 -1.42zm-1.79 -1.31l1.4 0 -0.69 -2.28 -0.03 0 -0.68 2.28zm5.23 -0.42l0 3.15 -0.27 0 0 -7.33 2.29 0c0.76,0 1.34,0.19 1.75,0.57 0.41,0.38 0.62,0.89 0.62,1.52 0,0.64 -0.21,1.15 -0.62,1.53 -0.4,0.38 -0.99,0.56 -1.75,0.56l-2.02 0zm0 -0.27l2.02 0c0.69,0 1.22,-0.17 1.57,-0.52 0.35,-0.34 0.52,-0.77 0.52,-1.29 0,-0.53 -0.17,-0.97 -0.52,-1.31 -0.35,-0.35 -0.87,-0.52 -1.57,-0.52l-2.02 0 0 3.64zm9.09 1.23l-3.58 0 -0.82 2.19 -0.3 0 2.74 -7.33 0.34 0 2.74 7.33 -0.3 0 -0.82 -2.19zm-3.48 -0.27l3.38 0 -1.54 -4.11 -0.14 -0.42 -0.03 0 -0.13 0.42 -1.54 4.11zm10.89 1.48c-0.15,0.26 -0.45,0.5 -0.89,0.74 -0.44,0.23 -0.97,0.35 -1.61,0.35 -0.84,0 -1.52,-0.3 -2.04,-0.9 -0.53,-0.6 -0.79,-1.37 -0.79,-2.33l0 -1.2c0,-0.92 0.26,-1.67 0.76,-2.25 0.51,-0.58 1.17,-0.87 1.98,-0.87 0.78,0 1.41,0.2 1.87,0.61 0.47,0.4 0.69,0.92 0.68,1.55l-0.01 0.03 -0.23 0c0,-0.56 -0.2,-1.02 -0.6,-1.38 -0.4,-0.36 -0.97,-0.54 -1.71,-0.54 -0.74,0 -1.34,0.27 -1.79,0.8 -0.45,0.53 -0.68,1.21 -0.68,2.04l0 1.21c0,0.87 0.24,1.58 0.7,2.13 0.47,0.55 1.09,0.83 1.86,0.83 0.59,0 1.07,-0.1 1.45,-0.29 0.38,-0.19 0.64,-0.41 0.78,-0.66l0 -2.09 -2.24 0 0 -0.27 2.51 0 0 2.49zm5.83 -2.71l-3.53 0 0 3.42 4.04 0 0 0.27 -4.31 0 0 -7.33 4.31 0 0 0.27 -4.04 0 0 3.1 3.53 0 0 0.27zm6.22 1.96c0,-0.41 -0.17,-0.75 -0.52,-1.01 -0.34,-0.26 -0.93,-0.52 -1.76,-0.79 -0.82,-0.26 -1.43,-0.52 -1.82,-0.8 -0.39,-0.29 -0.59,-0.7 -0.59,-1.26 0,-0.55 0.23,-1 0.69,-1.34 0.46,-0.34 1.04,-0.51 1.74,-0.51 0.74,0 1.32,0.19 1.77,0.57 0.45,0.37 0.66,0.9 0.65,1.57l-0.01 0.03 -0.23 0c0,-0.54 -0.21,-1 -0.61,-1.36 -0.4,-0.35 -0.92,-0.54 -1.57,-0.54 -0.66,0 -1.18,0.16 -1.57,0.47 -0.39,0.31 -0.59,0.68 -0.59,1.1 0,0.42 0.16,0.77 0.47,1.03 0.32,0.27 0.9,0.52 1.76,0.77 0.83,0.27 1.45,0.54 1.86,0.82 0.4,0.28 0.61,0.7 0.61,1.24 0,0.56 -0.24,1.01 -0.72,1.35 -0.48,0.33 -1.07,0.5 -1.78,0.5 -0.74,0 -1.37,-0.17 -1.9,-0.52 -0.53,-0.34 -0.79,-0.88 -0.77,-1.62l0.01 -0.03 0.23 0c0,0.66 0.24,1.14 0.73,1.45 0.49,0.3 1.06,0.45 1.7,0.45 0.64,0 1.17,-0.15 1.59,-0.45 0.42,-0.3 0.63,-0.67 0.63,-1.12z"/>
 </g>
</svg>
