<?xml version="1.0" encoding="UTF-8"?>
<!DOCTYPE svg PUBLIC "-//W3C//DTD SVG 1.0//EN" "http://www.w3.org/TR/2001/REC-SVG-20010904/DTD/svg10.dtd">
<!-- Creator: CorelDRAW 2021 (64-Bit) -->
<svg xmlns="http://www.w3.org/2000/svg" xml:space="preserve" width="694px" height="244px" version="1.0" style="shape-rendering:geometricPrecision; text-rendering:geometricPrecision; image-rendering:optimizeQuality; fill-rule:evenodd; clip-rule:evenodd"
viewBox="0 0 307.29 107.98"
 xmlns:xlink="http://www.w3.org/1999/xlink"
 xmlns:xodm="http://www.corel.com/coreldraw/odm/2003">
 <defs>
  <style type="text/css">
   <![CDATA[
    .fil0 {fill:white;fill-rule:nonzero}
   ]]>
  </style>
 </defs>
 <g id="Layer_x0020_1">
  <metadata id="CorelCorpID_0Corel-Layer"/>
  <path class="fil0" d="M151.88 0.77c0,0.89 -2.16,2.27 -6.46,4.17 -4.3,1.9 -9.21,3.58 -14.74,5.1 -12.98,9.29 -25.85,25.87 -38.56,49.77l-1.25 2.35c0.61,0.11 1.36,0.16 2.19,0.16 6.35,0 12.23,-1.95 17.59,-5.87 5.37,-3.9 8.63,-8.63 9.78,-14.15 0.21,-0.83 0.5,-1.26 0.88,-1.26 0.29,0 0.45,0.21 0.45,0.64 0,3.18 -1.71,6.78 -5.15,10.87 -6.17,7.37 -14.1,11.05 -23.87,11.05 -0.94,0 -1.85,-0.05 -2.73,-0.16l-2.19 4.3c-3.81,7.32 -7.18,12.74 -10.09,16.29 -2.72,3.34 -6.41,6.68 -11.11,10.02 -13.08,9.29 -26.49,13.93 -40.18,13.93 -7.67,0 -14,-1.62 -18.96,-4.86 -5,-3.23 -7.48,-7.37 -7.48,-12.44 0,-2.7 0.77,-5.02 2.3,-6.91 1.55,-1.9 3.41,-2.86 5.6,-2.86 3.4,0 5.08,1.76 5.08,5.31 0,1.71 -0.56,3.18 -1.68,4.38 -1.13,1.2 -2.51,1.79 -4.12,1.79 -2.45,0 -3.68,-1.18 -3.68,-3.52l0 -1.55c0,-0.48 -0.16,-0.72 -0.48,-0.78 -0.94,0 -1.42,1.31 -1.42,3.98 0,4.49 2.19,8.25 6.57,11.3 4.38,3.04 9.83,4.56 16.34,4.56 15.7,0 29.86,-7.85 42.43,-23.55 3.69,-4.62 8.68,-11.8 14.93,-21.49 -8.87,-3.88 -13.3,-10.1 -13.3,-18.7 0,-10.44 5.88,-18.18 17.6,-23.25 5.95,-2.62 15.3,-5 28.09,-7.13l8.6 -1.39 7.37 -1.58c2.8,-2.08 6.46,-4.16 10.97,-6.22 4.51,-2.05 7.64,-3.07 9.35,-3.07 0.88,0 1.33,0.27 1.33,0.77zm-23.55 9.88c-1.17,0.27 -2.96,0.67 -5.31,1.26 -1.93,0.53 -4.76,1.23 -8.44,2.11 -12.74,3.04 -22.86,7.5 -30.39,13.38 -7.53,5.87 -11.29,12.25 -11.29,19.09 0,6.59 3.2,11.24 9.61,13.96 13.81,-22.11 29.08,-38.71 45.82,-49.8z"/>
  <path id="_1" class="fil0" d="M168.33 79.71c0,1.09 -3.79,6.16 -11.32,15.22 -6.2,7.42 -11.08,11.13 -14.61,11.13 -2.35,0 -4.3,-0.91 -5.9,-2.75 -1.57,-1.81 -2.37,-4.06 -2.37,-6.7 0,-2.35 0.48,-4.54 1.44,-6.54 0.99,-2.01 3.5,-5.98 7.58,-11.94 4.25,-6.25 6.36,-10.23 6.36,-11.96 0,-2.14 -1.13,-3.21 -3.37,-3.21 -7.61,0 -19.36,14.16 -35.25,42.46 -2.53,-0.21 -4.08,-0.32 -4.59,-0.32 -1.84,0 -3.55,0.11 -5.18,0.32l12.2 -19.36c6.92,-11.05 10.39,-17.97 10.39,-20.75 0,-1.57 -0.64,-2.35 -1.95,-2.35 -2.64,0 -7.85,5.64 -15.62,16.91 -0.48,0.69 -0.83,1.06 -1.09,1.12 -0.27,0 -0.43,-0.16 -0.48,-0.48 0.05,-0.27 0.16,-0.48 0.32,-0.64l1.49 -1.95c7.96,-10.71 13.3,-16.08 16.05,-16.08 1.79,0 3.28,0.8 4.54,2.43 1.25,1.6 1.87,3.55 1.87,5.8 0,3.33 -1.95,7.95 -5.88,13.91 6.17,-8.49 10.9,-14.31 14.21,-17.44 3.31,-3.12 6.35,-4.7 9.19,-4.7 2.26,0 4.21,0.94 5.76,2.81 1.58,1.89 2.35,4.22 2.35,6.97 0,3.49 -2.4,8.83 -7.21,16.04 -4.91,7.35 -7.37,12.05 -7.37,14.08 0,2.13 1.07,3.2 3.21,3.2 4.62,0 12.63,-8.3 23.98,-24.91 0.26,-0.54 0.5,-0.8 0.77,-0.8 0.32,0 0.48,0.16 0.48,0.48z"/>
  <path id="_2" class="fil0" d="M195.11 79.71c-0.05,0.16 -0.32,0.58 -0.8,1.25l-3.36 4.62c-9.78,13.65 -17.25,20.48 -22.41,20.48 -2.45,0 -4.48,-0.88 -6.14,-2.64 -1.63,-1.76 -2.45,-3.95 -2.45,-6.57 0,-3.02 1.79,-7.58 5.39,-13.73l12.23 -20.64c1.6,0.38 2.88,0.56 3.82,0.56 1.41,0 3.39,-0.18 5.95,-0.56l-17.78 29.22c-2.56,4.24 -3.85,7.5 -3.85,9.8 0,2.29 1.23,3.44 3.69,3.44 4.62,0 12.79,-8.3 24.46,-24.91 0.27,-0.54 0.51,-0.8 0.77,-0.8 0.32,0 0.48,0.16 0.48,0.48zm19.31 -41.42c-5.05,3.98 -11.54,7.61 -19.41,10.9 -6.04,2.61 -9.51,3.92 -10.39,3.92 -0.21,0 -0.37,-0.05 -0.48,-0.16 0,-0.16 0.32,-0.4 0.93,-0.69 12.18,-5.82 20.86,-12.13 26.06,-18.94l3.29 4.97z"/>
  <path id="_3" class="fil0" d="M234.05 79.71c0,0.66 -3.69,5.07 -11.03,13.16 -8.01,8.79 -14.85,13.19 -20.48,13.19 -3.64,0 -6.76,-1.39 -9.38,-4.19 -2.59,-2.78 -3.89,-6.09 -3.89,-9.96 0,-4.35 1.76,-8.89 5.31,-13.59 3.55,-4.68 8.33,-8.71 14.34,-12.1 5.05,-2.91 9.18,-4.38 12.36,-4.38 3.87,0 5.8,2.3 5.8,6.89 0,3.58 -1.21,7.18 -3.64,10.79 -2.43,3.6 -4.86,5.39 -7.26,5.39 -2.35,0 -3.52,-1.17 -3.52,-3.52 0,-2.78 2.4,-5.34 7.23,-7.69 3.71,-1.82 5.58,-4.22 5.58,-7.21 0,-2.35 -1.28,-3.53 -3.84,-3.53 -4.33,0 -9.67,4.3 -16,12.93 -6.32,8.62 -9.48,15.83 -9.48,21.68 0,4.91 2.3,7.37 6.87,7.37 7.21,0 16.93,-8.14 29.21,-24.46 0.69,-0.83 1.17,-1.25 1.49,-1.25 0.22,0.05 0.33,0.21 0.33,0.48z"/>
  <path id="_4" class="fil0" d="M259.79 47.42c0,1.85 -0.78,3.56 -2.33,5.13 -1.52,1.6 -3.2,2.4 -5.04,2.4 -2.35,0 -3.53,-1.17 -3.53,-3.52 0,-1.74 0.8,-3.39 2.43,-4.97 1.63,-1.6 3.31,-2.4 5.1,-2.4 2.24,0 3.37,1.12 3.37,3.36zm1.04 32.29c-0.06,0.16 -0.32,0.58 -0.8,1.25l-3.37 4.62c-9.77,13.65 -17.25,20.48 -22.4,20.48 -2.46,0 -4.49,-0.88 -6.14,-2.62 -1.63,-1.73 -2.46,-3.92 -2.46,-6.51 0,-3.02 1.79,-7.61 5.39,-13.75l12.23 -20.7c1.63,0.38 2.89,0.56 3.82,0.56 1.42,0 3.39,-0.18 5.96,-0.56l-17.79 29.16c-2.56,4.22 -3.84,7.48 -3.84,9.78 0,2.35 1.23,3.52 3.68,3.52 4.62,0 12.79,-8.3 24.46,-24.91 0.27,-0.54 0.51,-0.8 0.78,-0.8 0.32,0 0.48,0.16 0.48,0.48z"/>
  <path id="_5" class="fil0" d="M307.29 79.71c0,0.82 -1.55,2.77 -4.62,5.84 -4.59,4.6 -8.81,6.89 -12.66,6.89 -1.63,0 -3.07,-0.32 -4.3,-0.93 -6.89,9.69 -13.35,14.55 -19.38,14.55 -3.15,0 -5.82,-1.28 -8.04,-3.87 -2.22,-2.56 -3.31,-5.66 -3.31,-9.27 0,-8.01 5.26,-15.75 15.81,-23.2 7.42,-5.26 13.51,-7.88 18.31,-7.88 4.49,0 6.73,2.41 6.73,7.19 0,6 -3.15,13.24 -9.45,21.68 1.04,0.61 2.22,0.93 3.5,0.93 2.35,0 5.1,-1.09 8.2,-3.28 3.12,-2.19 5.66,-4.81 7.63,-7.88 0.59,-0.72 0.99,-1.09 1.26,-1.09 0.21,0 0.32,0.1 0.32,0.32zm-12.58 -10.55c0,-4.25 -1.89,-6.36 -5.71,-6.36 -4.75,0 -10.52,4.54 -17.36,13.62 -6.83,9.11 -10.25,16.74 -10.25,22.97 0,3.6 1.71,5.39 5.15,5.39 5.64,0 11.8,-4.65 18.48,-13.94 -1.52,-1.68 -2.27,-3.39 -2.27,-5.18 0,-2.54 1.01,-5.18 3.04,-7.9 2.03,-2.73 4.01,-4.06 5.96,-4.06 0.83,0 1.39,0.51 1.71,1.55 0.83,-1.82 1.25,-3.85 1.25,-6.09z"/>
 </g>
</svg>
